# xmcd CD database file
#
# Track frame offsets:
#	150
#	29854
#	57793
#	100997
#	123453
#	151170
#	199919
#	232875
#	257244
#	281325
#
# Disc length: 4185 seconds
#
# Revision: 0
# Processed by: cddbd v1.5.2PL0 Copyright (c) Steve Scherf et al.
# Submitted via: CDex 1.51
#
DISCID=8910570a
DTITLE=Paul Zauner's Blue Brass - Venus Of Harlem
DYEAR=2008
DGENRE=Jazz
TTITLE0=Soil
TTITLE1=A and F
TTITLE2=The Creator Has A Master Plan
TTITLE3=Drown In My Tears
TTITLE4=Better Get Hit In Your Soul
TTITLE5=Ishmael
TTITLE6=For Louis
TTITLE7=2/15
TTITLE8=Georgia On My Mind
TTITLE9=Uo Ja Jo
EXTD=YEAR: 2008
EXTT0=
EXTT1=
EXTT2=
EXTT3=
EXTT4=
EXTT5=
EXTT6=
EXTT7=
EXTT8=
EXTT9=
PLAYORDER=
